<?xml version="1.0" encoding="UTF-8" standalone="no"?>
<!-- Created with Inkscape (http://www.inkscape.org/) -->

<svg
   xmlns:dc="http://purl.org/dc/elements/1.1/"
   xmlns:cc="http://creativecommons.org/ns#"
   xmlns:rdf="http://www.w3.org/1999/02/22-rdf-syntax-ns#"
   xmlns:svg="http://www.w3.org/2000/svg"
   xmlns="http://www.w3.org/2000/svg"
   xmlns:sodipodi="http://sodipodi.sourceforge.net/DTD/sodipodi-0.dtd"
   xmlns:inkscape="http://www.inkscape.org/namespaces/inkscape"
   width="566.92914"
   height="425.19684"
   id="svg2"
   version="1.1"
   inkscape:version="0.48.4 r9939"
   sodipodi:docname="020_plastic_deposition.ink.svg"
   inkscape:export-filename="/home/philetus/workshops/cascadia/plastic_deposition.png"
   inkscape:export-xdpi="150.03"
   inkscape:export-ydpi="150.03">
  <defs
     id="defs4" />
  <sodipodi:namedview
     id="base"
     pagecolor="#ffffff"
     bordercolor="#666666"
     borderopacity="1.0"
     inkscape:pageopacity="0.0"
     inkscape:pageshadow="2"
     inkscape:zoom="0.98994949"
     inkscape:cx="304.46662"
     inkscape:cy="241.60771"
     inkscape:document-units="px"
     inkscape:current-layer="layer1"
     showgrid="false"
     inkscape:window-width="959"
     inkscape:window-height="744"
     inkscape:window-x="65"
     inkscape:window-y="24"
     inkscape:window-maximized="1"
     units="mm"
     fit-margin-top="10"
     fit-margin-left="10"
     fit-margin-bottom="10"
     fit-margin-right="10"
     inkscape:snap-page="true" />
  <metadata
     id="metadata7">
    <rdf:RDF>
      <cc:Work
         rdf:about="">
        <dc:format>image/svg+xml</dc:format>
        <dc:type
           rdf:resource="http://purl.org/dc/dcmitype/StillImage" />
        <dc:title />
      </cc:Work>
    </rdf:RDF>
  </metadata>
  <g
     inkscape:label="Layer 1"
     inkscape:groupmode="layer"
     id="layer1"
     transform="translate(-8.0034871,-39.725677)">
    <rect
       style="color:#000000;fill:#000000;fill-opacity:1;fill-rule:nonzero;stroke:none;stroke-width:3.54330707000000000;marker:none;visibility:visible;display:inline;overflow:visible;enable-background:accumulate"
       id="rect4229"
       width="566.92914"
       height="425.19684"
       x="0"
       y="0"
       transform="translate(8.0034871,39.725677)" />
    <rect
       style="color:#000000;fill:#ffffff;fill-opacity:1;fill-rule:nonzero;stroke:none;stroke-width:3.54330707;marker:none;visibility:visible;display:inline;overflow:visible;enable-background:accumulate"
       id="rect4739-3"
       width="229.30463"
       height="295.89731"
       x="24.874498"
       y="53.064079" />
    <rect
       style="color:#000000;fill:#ffffff;fill-opacity:1;fill-rule:nonzero;stroke:none;stroke-width:3.54330707;marker:none;visibility:visible;display:inline;overflow:visible;enable-background:accumulate"
       id="rect4739-8"
       width="292.94424"
       height="134.2729"
       x="267.36969"
       y="253.07428" />
    <rect
       style="color:#000000;fill:#ffffff;fill-opacity:1;fill-rule:nonzero;stroke:none;stroke-width:3.54330707;marker:none;visibility:visible;display:inline;overflow:visible;enable-background:accumulate"
       id="rect4739"
       width="292.94424"
       height="185.79068"
       x="267.36969"
       y="53.102764" />
    <path
       style="fill:#a900ff;fill-opacity:1;stroke:none"
       d="m 91.325919,85.111328 c 0,0 0.0702,132.063192 1.36639,138.794092 2.41236,12.52676 15.657201,26.07174 15.657201,29.6246 0,3.5529 0.98688,30.41562 -0.68318,34.34457 -2.39119,5.62539 -10.004221,16.11444 -5.20678,18.74418 8.42214,4.61661 15.40816,-13.24668 14.81469,-30.4651 -0.59347,-17.21842 -0.77388,-24.98465 2.98365,-30.0179 2.82654,-3.78618 9.82841,-10.03602 8.64343,-34.66542 -0.5985,-12.43959 3.41593,-134.056938 3.41593,-134.056938 l -12.98059,3.552884 -9.56464,-16.580129 -1.36638,36.120993 -6.83188,-17.172273 z"
       id="path3947"
       inkscape:connector-curvature="0"
       sodipodi:nodetypes="csssszsscccccc" />
    <text
       xml:space="preserve"
       style="font-size:4px;font-style:normal;font-weight:normal;text-align:center;line-height:125%;letter-spacing:0px;word-spacing:0px;text-anchor:middle;fill:#ffffff;fill-opacity:1;stroke:none;font-family:Sans"
       x="288.28088"
       y="440.02499"
       id="text3877"
       sodipodi:linespacing="125%"><tspan
         sodipodi:role="line"
         id="tspan3879"
         x="288.28088"
         y="440.02499"
         style="font-size:36px;text-align:center;text-anchor:middle;fill:#ffffff">plastic deposition constraints</tspan></text>
    <path
       style="fill:#ff3b00;fill-opacity:1;stroke:none"
       d="m 57.849669,191.92948 2.73275,48.55609 32.79307,30.79168 1.36638,8.29005 10.692981,-0.32088 0,-24.8702 -17.524881,-22.77285 1e-5,-39.08174 z"
       id="path3935"
       inkscape:connector-curvature="0"
       sodipodi:nodetypes="ccccccccc" />
    <path
       style="fill:#ff3b00;fill-opacity:1;stroke:none"
       d="m 120.3071,254.13436 0,25.1227 10.31409,0 0,-7.95554 33.83624,-28.83668 -0.0303,-49.35106 -30.06031,0 0,44.41105 z"
       id="path3937"
       inkscape:connector-curvature="0"
       sodipodi:nodetypes="ccccccccc" />
    <path
       style="fill:#000000;fill-opacity:1;stroke:#000000;stroke-width:1.0970515px;stroke-linecap:butt;stroke-linejoin:miter;stroke-opacity:1"
       d="m 54.776459,111.77242 0.48308,81.23006 32.36688,0 -1.44926,-80.81134 z"
       id="path3939"
       inkscape:connector-curvature="0"
       sodipodi:nodetypes="ccccc" />
    <path
       style="fill:#000000;fill-opacity:1;stroke:none"
       d="m 132.34461,135.91002 1.41015,5.05677 -6.22466,1.327 2.68602,3.91123 -4.91371,4.10555 4.62467,3.33575 -2.60137,4.87537 4.04657,-0.25661 -0.28903,6.67154 6.35891,-0.76979 0.28905,4.87535 6.64794,-1.0264 1.15616,6.41492 6.93701,-4.10555 3.46851,5.13195 3.46846,-5.13195 7.5151,2.05278 -0.86712,-4.10556 8.09315,0 -2.02328,-3.84895 7.22602,-2.30939 -3.46847,-4.61873 5.20272,-2.30938 -3.46847,-3.84895 4.04656,-4.87536 -6.64795,-2.30938 1.15618,-5.90172 -5.78084,-0.5132 -3.4685,-5.38854 -4.33563,2.30938 -3.17947,-5.38856 -5.20272,4.36215 -4.91372,-3.59235 -2.31233,3.84894 -5.20274,-2.30937 -3.91957,5.80458 z"
       id="path3943"
       inkscape:connector-curvature="0"
       sodipodi:nodetypes="ccccccccccccccccccccccccccccccccccccc" />
    <path
       style="fill:#ffffff;fill-opacity:1;stroke:none"
       d="m 158.94949,140.22433 c -9.39387,-3.10877 -21.52046,3.84895 -21.34966,10.06651 0.1708,6.21753 3.58675,11.39884 9.90623,11.25081 6.31951,-0.14805 9.22307,-0.7402 9.22307,-0.7402 l -0.85401,4.29306 10.58945,-8.43808 -12.639,-2.96075 2.22035,4.29308 c 0,0 -6.05056,0.87985 -9.22305,-0.44411 -4.61151,-1.92448 -7.80811,-6.96382 -0.68318,-10.51063 6.75636,-3.36333 12.1266,-0.59215 12.1266,-0.59215 l -3.92834,-3.99699 z"
       id="path3945"
       inkscape:connector-curvature="0"
       sodipodi:nodetypes="csscccccssccc" />
    <path
       style="color:#000000;fill:#000000;fill-opacity:1;fill-rule:nonzero;stroke:#000000;stroke-width:1.0970515px;stroke-linecap:butt;stroke-linejoin:miter;stroke-miterlimit:4;stroke-opacity:1;stroke-dasharray:none;stroke-dashoffset:0;marker:none;visibility:visible;display:inline;overflow:visible;enable-background:accumulate"
       d="m 134.24436,172.90431 0.24154,20.51687 32.60842,0 0,-14.02682 c 0,0 -12.56028,1.67483 -16.18344,0.62805 -3.62316,-1.04678 -16.66652,-7.1181 -16.66652,-7.1181 z"
       id="path3949"
       inkscape:connector-curvature="0"
       sodipodi:nodetypes="ccccsc" />
    <path
       style="color:#000000;fill:#000000;fill-opacity:1;fill-rule:nonzero;stroke:#000000;stroke-width:1.0970515px;stroke-linecap:butt;stroke-linejoin:miter;stroke-miterlimit:4;stroke-opacity:1;stroke-dasharray:none;stroke-dashoffset:0;marker:none;visibility:visible;display:inline;overflow:visible;enable-background:accumulate"
       d="m 133.51973,112.19114 -0.24155,18.63266 c 0,0 4.34779,-7.53681 16.66652,-7.95553 12.31875,-0.41871 21.4974,7.11811 21.4974,7.11811 l -0.72463,-17.58588 z"
       id="path3968"
       inkscape:connector-curvature="0"
       sodipodi:nodetypes="ccsccc" />
    <path
       style="color:#000000;fill:#00ff00;fill-opacity:0.64383563;fill-rule:nonzero;stroke:none;stroke-width:1px;marker:none;visibility:visible;display:inline;overflow:visible;enable-background:accumulate"
       d="m 361.6134,118.71251 -68.06721,77.43703 240.53403,30.6969 7.83545,-88.92227 z"
       id="path3976"
       inkscape:connector-curvature="0"
       sodipodi:nodetypes="ccccc" />
    <path
       style="fill:none;stroke:#a900ff;stroke-width:10.76385021;stroke-linecap:round;stroke-linejoin:round;stroke-miterlimit:4;stroke-opacity:1;stroke-dasharray:none"
       d="m 365.88745,127.10174 -56.39579,62.51072 215.78847,26.42284 7.92853,-70.42327 z"
       id="path3995"
       inkscape:connector-curvature="0"
       sodipodi:nodetypes="ccccc" />
    <path
       style="color:#000000;fill:none;stroke:#a900ff;stroke-width:10.76385021;stroke-linecap:round;stroke-linejoin:round;stroke-miterlimit:4;stroke-opacity:1;stroke-dasharray:none;stroke-dashoffset:0;marker:none;visibility:visible;display:inline;overflow:visible;enable-background:accumulate"
       d="m 371.3123,140.43915 -34.40591,39.24971 175.76496,21.1569 5.79714,-43.68267 z"
       id="path4008"
       inkscape:connector-curvature="0"
       sodipodi:nodetypes="ccccc" />
    <path
       style="color:#000000;fill:none;stroke:#a900ff;stroke-width:10.76385021;stroke-linecap:round;stroke-linejoin:round;stroke-miterlimit:4;stroke-opacity:1;stroke-dasharray:none;stroke-dashoffset:0;marker:none;visibility:visible;display:inline;overflow:visible;enable-background:accumulate"
       d="m 360.91623,170.83198 16.49456,-16.49456 21.09768,2.30157 -19.56331,14.57657 19.17973,2.30157 17.64533,-14.57659 19.94693,1.53438 -18.79613,15.34378 18.02893,2.30157 18.41253,-14.96019 18.79613,1.91797 -18.79613,14.96019 20.3305,2.68516 15.72738,-14.96018 15.34378,1.53438 -13.8094,14.9602 10.95781,1.85684"
       id="path4016"
       inkscape:connector-curvature="0"
       sodipodi:nodetypes="ccccccccccccccccc" />
    <path
       style="fill:#000000;fill-opacity:1;stroke:none"
       d="m 96.600089,311.00886 0,20.40099 5.909231,-8.22696 5.00694,-0.27712 6.16741,8.45654 0,-21.50951 -6.16741,8.61888 -4.59143,0 z"
       id="path4024"
       inkscape:connector-curvature="0"
       sodipodi:nodetypes="ccccccccc" />
    <text
       xml:space="preserve"
       style="font-size:3.59390163px;font-style:normal;font-weight:normal;line-height:125%;letter-spacing:0px;word-spacing:0px;fill:#000000;fill-opacity:1;stroke:none;font-family:Sans"
       x="145.23827"
       y="332.16931"
       id="text4032"
       sodipodi:linespacing="125%"><tspan
         sodipodi:role="line"
         id="tspan4034"
         x="145.23827"
         y="332.16931"
         style="font-size:28.75121307px">0.5mm</tspan></text>
    <path
       style="fill:none;stroke:#000000;stroke-width:3.1835742;stroke-linecap:butt;stroke-linejoin:miter;stroke-miterlimit:4;stroke-opacity:1;stroke-dasharray:none"
       d="m 118.90903,320.24456 c 17.00686,-6.41768 3.52973,7.38033 10.58918,7.38033 7.05944,0 12.19359,-4.17149 12.19359,-4.17149"
       id="path4036"
       inkscape:connector-curvature="0"
       sodipodi:nodetypes="csc" />
    <path
       style="color:#000000;fill:#000000;fill-opacity:1;fill-rule:nonzero;stroke:none;stroke-width:1px;marker:none;visibility:visible;display:inline;overflow:visible;enable-background:accumulate"
       d="m 276.01292,172.36401 0.78151,19.06852 19.10013,-9.52308 -8.31921,-2.4301 53.44135,-55.58859 4.52339,4.55498 2.96036,-13.89388 -19.98955,4.29449 8.16662,2.87481 -53.54926,55.53465 z"
       id="path4038"
       inkscape:connector-curvature="0"
       sodipodi:nodetypes="ccccccccccc" />
    <text
       xml:space="preserve"
       style="font-size:3.52191401px;font-style:normal;font-weight:normal;line-height:125%;letter-spacing:0px;word-spacing:0px;fill:#000000;fill-opacity:1;stroke:none;font-family:Sans"
       x="310.0087"
       y="88.786644"
       id="text4032-1"
       sodipodi:linespacing="125%"><tspan
         sodipodi:role="line"
         id="tspan4034-6"
         x="310.0087"
         y="88.786644"
         style="font-size:28.17531204px">3mm</tspan></text>
    <path
       style="color:#000000;fill:none;stroke:#000000;stroke-width:3.11980557;stroke-linecap:butt;stroke-linejoin:miter;stroke-miterlimit:4;stroke-opacity:1;stroke-dasharray:none;stroke-dashoffset:0;marker:none;visibility:visible;display:inline;overflow:visible;enable-background:accumulate"
       d="M 305.3637,142.56852 C 279.23762,126.038 304.58405,116.47882 291.5723,99.404004 282.5182,87.52264 286.38073,76.2753 305.58877,78.216"
       id="path4095"
       inkscape:connector-curvature="0"
       sodipodi:nodetypes="csc" />
    <path
       style="color:#000000;fill:#00ff00;fill-opacity:0.64383563;fill-rule:nonzero;stroke:none;stroke-width:1px;marker:none;visibility:visible;display:inline;overflow:visible;enable-background:accumulate"
       d="m 317.27602,313.03109 70.8297,13.79907 31.12962,12.00714 36.02141,-1.11178 47.58384,-16.23187 41.06581,27.46403 -52.85059,17.78509 8.67181,-27.68313 -84.04995,16.67658 -44.44471,-3.89447 -89.51513,15.36209 z"
       id="path4158"
       inkscape:connector-curvature="0"
       sodipodi:nodetypes="cccccccccccc" />
    <path
       style="color:#000000;fill:none;stroke:#a900ff;stroke-width:10.76385021;stroke-linecap:round;stroke-linejoin:round;stroke-miterlimit:4;stroke-opacity:1;stroke-dasharray:none;stroke-dashoffset:0;marker:none;visibility:visible;display:inline;overflow:visible;enable-background:accumulate"
       d="m 394.33165,340.17142 -29.35079,-1.77883 -65.6643,16.48583 22.08284,-30.71652 17.78835,3.55767"
       id="path4177"
       inkscape:connector-curvature="0"
       sodipodi:nodetypes="ccccc" />
    <path
       style="color:#000000;fill:none;stroke:#a900ff;stroke-width:10.76385021;stroke-linecap:round;stroke-linejoin:round;stroke-miterlimit:4;stroke-opacity:1;stroke-dasharray:none;stroke-dashoffset:0;marker:none;visibility:visible;display:inline;overflow:visible;enable-background:accumulate"
       d="m 504.17472,353.06798 17.34364,-6.67063 -15.12011,-10.22831"
       id="path4185"
       inkscape:connector-curvature="0"
       sodipodi:nodetypes="ccc" />
    <text
       xml:space="preserve"
       style="font-size:3.52191401px;font-style:normal;font-weight:normal;line-height:125%;letter-spacing:0px;word-spacing:0px;fill:#000000;fill-opacity:1;stroke:none;font-family:Sans"
       x="292.66895"
       y="293.01904"
       id="text4032-1-1"
       sodipodi:linespacing="125%"><tspan
         sodipodi:role="line"
         id="tspan4034-6-4"
         x="292.66895"
         y="293.01904"
         style="font-size:28.17531204px">too small</tspan></text>
    <path
       style="color:#000000;fill:none;stroke:#000000;stroke-width:3.11980557;stroke-linecap:butt;stroke-linejoin:miter;stroke-miterlimit:4;stroke-opacity:1;stroke-dasharray:none;stroke-dashoffset:0;marker:none;visibility:visible;display:inline;overflow:visible;enable-background:accumulate"
       d="m 428.27851,283.48624 c 30.27491,-6.26578 45.74047,-0.67402 40.45827,14.78828 -5.51837,16.15361 -29.91345,9.02331 -16.6141,32.53682"
       id="path4095-6"
       inkscape:connector-curvature="0"
       sodipodi:nodetypes="csc" />
  </g>
</svg>
